# xmcd
#
# Track frame offsets: 
#        150
#        9937
#        25360
#        46415
#        77138
#        88121
#        104477
#        129421
#        177817
#        189708
#        206664
#        215226
#        237508
#        259190
#
# Disc length: 3746 seconds
#
# Revision: 0
# Processed by: cddbd v1.4PL0 Copyright (c) Steve Scherf et al.
# Submitted via: ExactAudioCopy v0.90b4
#
DISCID=c70ea00e
DTITLE=Van Morrison - Berkeley 1992 april 17, disc 1
DYEAR=1992
DGENRE=Celtic
TTITLE0=Foreign Window
TTITLE1=The Mystery
TTITLE2=Some Peace Of Mind
TTITLE3=Haunts Of Ancient Peace > Take Me Back > Hymns To The Silence
TTITLE4=All Saints Day
TTITLE5=Allow Me > Mama Don't Allow
TTITLE6=Moondance > Fever
TTITLE7=Sweet Thing > My Lagan Love
TTITLE8=Star Of The County Down
TTITLE9=Northern Muse (Solid Ground) > No Prima Donna
TTITLE10=Coney Island
TTITLE11=Since I Fell For You
TTITLE12=It Fills You Up
TTITLE13=So Quiet In Here > That's Where It's At
EXTD=
EXTT0=
EXTT1=
EXTT2=
EXTT3=
EXTT4=
EXTT5=
EXTT6=
EXTT7=
EXTT8=
EXTT9=
EXTT10=
EXTT11=
EXTT12=
EXTT13=
PLAYORDER=
